<mxfile host="app.diagrams.net" agent="Mozilla/5.0 (Windows NT 10.0; Win64; x64) AppleWebKit/537.36 (KHTML, like Gecko) Chrome/135.0.0.0 Safari/537.36" version="26.2.9">
  <diagram name="Page-1" id="_5hTid9WKxWVf--3Pm5l">
    <mxGraphModel dx="1366" dy="791" grid="1" gridSize="10" guides="1" tooltips="1" connect="1" arrows="1" fold="1" page="1" pageScale="1" pageWidth="850" pageHeight="1100" math="0" shadow="0">
      <root>
        <mxCell id="0" />
        <mxCell id="1" parent="0" />
        <mxCell id="-ueJ-rn1FIGGCWriRNwZ-8" value="" style="edgeStyle=orthogonalEdgeStyle;rounded=0;orthogonalLoop=1;jettySize=auto;html=1;" edge="1" parent="1" source="-ueJ-rn1FIGGCWriRNwZ-1" target="-ueJ-rn1FIGGCWriRNwZ-4">
          <mxGeometry relative="1" as="geometry" />
        </mxCell>
        <mxCell id="-ueJ-rn1FIGGCWriRNwZ-11" value="u8 (80,320)" style="edgeLabel;html=1;align=center;verticalAlign=middle;resizable=0;points=[];" vertex="1" connectable="0" parent="-ueJ-rn1FIGGCWriRNwZ-8">
          <mxGeometry x="-0.2" y="3" relative="1" as="geometry">
            <mxPoint as="offset" />
          </mxGeometry>
        </mxCell>
        <mxCell id="-ueJ-rn1FIGGCWriRNwZ-1" value="Foreground&lt;div&gt;Image&lt;/div&gt;" style="rounded=0;whiteSpace=wrap;html=1;fillColor=#d5e8d4;strokeColor=#82b366;" vertex="1" parent="1">
          <mxGeometry x="360" y="160" width="80" height="40" as="geometry" />
        </mxCell>
        <mxCell id="-ueJ-rn1FIGGCWriRNwZ-7" value="" style="edgeStyle=orthogonalEdgeStyle;rounded=0;orthogonalLoop=1;jettySize=auto;html=1;" edge="1" parent="1" source="-ueJ-rn1FIGGCWriRNwZ-2" target="-ueJ-rn1FIGGCWriRNwZ-5">
          <mxGeometry relative="1" as="geometry" />
        </mxCell>
        <mxCell id="-ueJ-rn1FIGGCWriRNwZ-10" value="u8 (80,320)" style="edgeLabel;html=1;align=center;verticalAlign=middle;resizable=0;points=[];" vertex="1" connectable="0" parent="-ueJ-rn1FIGGCWriRNwZ-7">
          <mxGeometry x="-0.05" y="2" relative="1" as="geometry">
            <mxPoint as="offset" />
          </mxGeometry>
        </mxCell>
        <mxCell id="-ueJ-rn1FIGGCWriRNwZ-2" value="Background&lt;div&gt;Image&lt;/div&gt;" style="rounded=0;whiteSpace=wrap;html=1;fillColor=#d5e8d4;strokeColor=#82b366;" vertex="1" parent="1">
          <mxGeometry x="200" y="160" width="80" height="40" as="geometry" />
        </mxCell>
        <mxCell id="-ueJ-rn1FIGGCWriRNwZ-9" value="" style="edgeStyle=orthogonalEdgeStyle;rounded=0;orthogonalLoop=1;jettySize=auto;html=1;" edge="1" parent="1" source="-ueJ-rn1FIGGCWriRNwZ-3" target="-ueJ-rn1FIGGCWriRNwZ-6">
          <mxGeometry relative="1" as="geometry" />
        </mxCell>
        <mxCell id="-ueJ-rn1FIGGCWriRNwZ-12" value="u8 (80,320)" style="edgeLabel;html=1;align=center;verticalAlign=middle;resizable=0;points=[];" vertex="1" connectable="0" parent="-ueJ-rn1FIGGCWriRNwZ-9">
          <mxGeometry y="-3" relative="1" as="geometry">
            <mxPoint as="offset" />
          </mxGeometry>
        </mxCell>
        <mxCell id="-ueJ-rn1FIGGCWriRNwZ-3" value="FgBeam&lt;div&gt;PatternPdstr&lt;/div&gt;" style="rounded=0;whiteSpace=wrap;html=1;fillColor=#d5e8d4;strokeColor=#82b366;" vertex="1" parent="1">
          <mxGeometry x="520" y="160" width="80" height="40" as="geometry" />
        </mxCell>
        <mxCell id="-ueJ-rn1FIGGCWriRNwZ-23" value="" style="edgeStyle=orthogonalEdgeStyle;rounded=0;orthogonalLoop=1;jettySize=auto;html=1;" edge="1" parent="1" source="-ueJ-rn1FIGGCWriRNwZ-4" target="-ueJ-rn1FIGGCWriRNwZ-19">
          <mxGeometry relative="1" as="geometry" />
        </mxCell>
        <mxCell id="-ueJ-rn1FIGGCWriRNwZ-29" value="u16 (80,320)" style="edgeLabel;html=1;align=center;verticalAlign=middle;resizable=0;points=[];" vertex="1" connectable="0" parent="-ueJ-rn1FIGGCWriRNwZ-23">
          <mxGeometry x="0.05" y="-4" relative="1" as="geometry">
            <mxPoint x="4" as="offset" />
          </mxGeometry>
        </mxCell>
        <mxCell id="-ueJ-rn1FIGGCWriRNwZ-4" value="Scale" style="rounded=0;whiteSpace=wrap;html=1;fillColor=#d5e8d4;strokeColor=#82b366;" vertex="1" parent="1">
          <mxGeometry x="360" y="240" width="80" height="40" as="geometry" />
        </mxCell>
        <mxCell id="-ueJ-rn1FIGGCWriRNwZ-22" value="" style="edgeStyle=orthogonalEdgeStyle;rounded=0;orthogonalLoop=1;jettySize=auto;html=1;" edge="1" parent="1" source="-ueJ-rn1FIGGCWriRNwZ-5" target="-ueJ-rn1FIGGCWriRNwZ-20">
          <mxGeometry relative="1" as="geometry" />
        </mxCell>
        <mxCell id="-ueJ-rn1FIGGCWriRNwZ-28" value="u16 (80,320)" style="edgeLabel;html=1;align=center;verticalAlign=middle;resizable=0;points=[];" vertex="1" connectable="0" parent="-ueJ-rn1FIGGCWriRNwZ-22">
          <mxGeometry x="-0.15" relative="1" as="geometry">
            <mxPoint as="offset" />
          </mxGeometry>
        </mxCell>
        <mxCell id="-ueJ-rn1FIGGCWriRNwZ-5" value="Scale" style="rounded=0;whiteSpace=wrap;html=1;fillColor=#d5e8d4;strokeColor=#82b366;" vertex="1" parent="1">
          <mxGeometry x="200" y="240" width="80" height="40" as="geometry" />
        </mxCell>
        <mxCell id="-ueJ-rn1FIGGCWriRNwZ-27" value="" style="edgeStyle=orthogonalEdgeStyle;rounded=0;orthogonalLoop=1;jettySize=auto;html=1;" edge="1" parent="1" source="-ueJ-rn1FIGGCWriRNwZ-6" target="-ueJ-rn1FIGGCWriRNwZ-21">
          <mxGeometry relative="1" as="geometry" />
        </mxCell>
        <mxCell id="-ueJ-rn1FIGGCWriRNwZ-30" value="u16 (80,320)" style="edgeLabel;html=1;align=center;verticalAlign=middle;resizable=0;points=[];" vertex="1" connectable="0" parent="-ueJ-rn1FIGGCWriRNwZ-27">
          <mxGeometry x="-0.1" y="-2" relative="1" as="geometry">
            <mxPoint as="offset" />
          </mxGeometry>
        </mxCell>
        <mxCell id="-ueJ-rn1FIGGCWriRNwZ-6" value="Scale" style="rounded=0;whiteSpace=wrap;html=1;fillColor=#d5e8d4;strokeColor=#82b366;" vertex="1" parent="1">
          <mxGeometry x="520" y="240" width="80" height="40" as="geometry" />
        </mxCell>
        <mxCell id="-ueJ-rn1FIGGCWriRNwZ-35" value="" style="edgeStyle=orthogonalEdgeStyle;rounded=0;orthogonalLoop=1;jettySize=auto;html=1;" edge="1" parent="1" source="-ueJ-rn1FIGGCWriRNwZ-19" target="-ueJ-rn1FIGGCWriRNwZ-31">
          <mxGeometry relative="1" as="geometry" />
        </mxCell>
        <mxCell id="-ueJ-rn1FIGGCWriRNwZ-39" value="u16 (320,80)" style="edgeLabel;html=1;align=center;verticalAlign=middle;resizable=0;points=[];" vertex="1" connectable="0" parent="-ueJ-rn1FIGGCWriRNwZ-35">
          <mxGeometry x="0.05" y="3" relative="1" as="geometry">
            <mxPoint as="offset" />
          </mxGeometry>
        </mxCell>
        <mxCell id="-ueJ-rn1FIGGCWriRNwZ-19" value="Transpose" style="rounded=0;whiteSpace=wrap;html=1;fillColor=#d5e8d4;strokeColor=#82b366;" vertex="1" parent="1">
          <mxGeometry x="360" y="320" width="80" height="40" as="geometry" />
        </mxCell>
        <mxCell id="-ueJ-rn1FIGGCWriRNwZ-34" value="" style="edgeStyle=orthogonalEdgeStyle;rounded=0;orthogonalLoop=1;jettySize=auto;html=1;" edge="1" parent="1" source="-ueJ-rn1FIGGCWriRNwZ-20" target="-ueJ-rn1FIGGCWriRNwZ-32">
          <mxGeometry relative="1" as="geometry" />
        </mxCell>
        <mxCell id="-ueJ-rn1FIGGCWriRNwZ-38" value="u16 (320,80)" style="edgeLabel;html=1;align=center;verticalAlign=middle;resizable=0;points=[];" vertex="1" connectable="0" parent="-ueJ-rn1FIGGCWriRNwZ-34">
          <mxGeometry x="-0.15" y="-3" relative="1" as="geometry">
            <mxPoint as="offset" />
          </mxGeometry>
        </mxCell>
        <mxCell id="-ueJ-rn1FIGGCWriRNwZ-20" value="Transpose" style="rounded=0;whiteSpace=wrap;html=1;fillColor=#d5e8d4;strokeColor=#82b366;" vertex="1" parent="1">
          <mxGeometry x="200" y="320" width="80" height="40" as="geometry" />
        </mxCell>
        <mxCell id="-ueJ-rn1FIGGCWriRNwZ-37" value="" style="edgeStyle=orthogonalEdgeStyle;rounded=0;orthogonalLoop=1;jettySize=auto;html=1;" edge="1" parent="1" source="-ueJ-rn1FIGGCWriRNwZ-21" target="-ueJ-rn1FIGGCWriRNwZ-33">
          <mxGeometry relative="1" as="geometry" />
        </mxCell>
        <mxCell id="-ueJ-rn1FIGGCWriRNwZ-40" value="u16 (320,80)" style="edgeLabel;html=1;align=center;verticalAlign=middle;resizable=0;points=[];" vertex="1" connectable="0" parent="-ueJ-rn1FIGGCWriRNwZ-37">
          <mxGeometry x="-0.3" y="-4" relative="1" as="geometry">
            <mxPoint x="4" y="6" as="offset" />
          </mxGeometry>
        </mxCell>
        <mxCell id="-ueJ-rn1FIGGCWriRNwZ-21" value="Transpose" style="rounded=0;whiteSpace=wrap;html=1;fillColor=#d5e8d4;strokeColor=#82b366;" vertex="1" parent="1">
          <mxGeometry x="520" y="320" width="80" height="40" as="geometry" />
        </mxCell>
        <mxCell id="-ueJ-rn1FIGGCWriRNwZ-43" value="" style="edgeStyle=orthogonalEdgeStyle;rounded=0;orthogonalLoop=1;jettySize=auto;html=1;" edge="1" parent="1" source="-ueJ-rn1FIGGCWriRNwZ-31" target="-ueJ-rn1FIGGCWriRNwZ-41">
          <mxGeometry relative="1" as="geometry" />
        </mxCell>
        <mxCell id="-ueJ-rn1FIGGCWriRNwZ-49" value="u16 (25600)" style="edgeLabel;html=1;align=center;verticalAlign=middle;resizable=0;points=[];" vertex="1" connectable="0" parent="-ueJ-rn1FIGGCWriRNwZ-43">
          <mxGeometry x="-0.3659" relative="1" as="geometry">
            <mxPoint as="offset" />
          </mxGeometry>
        </mxCell>
        <mxCell id="-ueJ-rn1FIGGCWriRNwZ-31" value="Linearize" style="rounded=0;whiteSpace=wrap;html=1;fillColor=#d5e8d4;strokeColor=#82b366;" vertex="1" parent="1">
          <mxGeometry x="360" y="400" width="80" height="40" as="geometry" />
        </mxCell>
        <mxCell id="-ueJ-rn1FIGGCWriRNwZ-32" value="Linearize" style="rounded=0;whiteSpace=wrap;html=1;fillColor=#d5e8d4;strokeColor=#82b366;" vertex="1" parent="1">
          <mxGeometry x="200" y="400" width="80" height="40" as="geometry" />
        </mxCell>
        <mxCell id="-ueJ-rn1FIGGCWriRNwZ-33" value="Linearize" style="rounded=0;whiteSpace=wrap;html=1;fillColor=#d5e8d4;strokeColor=#82b366;" vertex="1" parent="1">
          <mxGeometry x="520" y="400" width="80" height="40" as="geometry" />
        </mxCell>
        <mxCell id="-ueJ-rn1FIGGCWriRNwZ-52" value="" style="edgeStyle=orthogonalEdgeStyle;rounded=0;orthogonalLoop=1;jettySize=auto;html=1;" edge="1" parent="1" source="-ueJ-rn1FIGGCWriRNwZ-41" target="-ueJ-rn1FIGGCWriRNwZ-51">
          <mxGeometry relative="1" as="geometry" />
        </mxCell>
        <mxCell id="-ueJ-rn1FIGGCWriRNwZ-60" value="u16 (25600)" style="edgeLabel;html=1;align=center;verticalAlign=middle;resizable=0;points=[];" vertex="1" connectable="0" parent="-ueJ-rn1FIGGCWriRNwZ-52">
          <mxGeometry x="-0.3171" y="-2" relative="1" as="geometry">
            <mxPoint as="offset" />
          </mxGeometry>
        </mxCell>
        <mxCell id="-ueJ-rn1FIGGCWriRNwZ-41" value="ADB Model" style="rounded=0;whiteSpace=wrap;html=1;fillColor=#ffe6cc;strokeColor=#d79b00;" vertex="1" parent="1">
          <mxGeometry x="200" y="481" width="400" height="80" as="geometry" />
        </mxCell>
        <mxCell id="-ueJ-rn1FIGGCWriRNwZ-45" style="edgeStyle=orthogonalEdgeStyle;rounded=0;orthogonalLoop=1;jettySize=auto;html=1;" edge="1" parent="1" source="-ueJ-rn1FIGGCWriRNwZ-33">
          <mxGeometry relative="1" as="geometry">
            <mxPoint x="560" y="480" as="targetPoint" />
          </mxGeometry>
        </mxCell>
        <mxCell id="-ueJ-rn1FIGGCWriRNwZ-50" value="u16 (25600)" style="edgeLabel;html=1;align=center;verticalAlign=middle;resizable=0;points=[];" vertex="1" connectable="0" parent="-ueJ-rn1FIGGCWriRNwZ-45">
          <mxGeometry x="-0.3581" y="-2" relative="1" as="geometry">
            <mxPoint as="offset" />
          </mxGeometry>
        </mxCell>
        <mxCell id="-ueJ-rn1FIGGCWriRNwZ-47" style="edgeStyle=orthogonalEdgeStyle;rounded=0;orthogonalLoop=1;jettySize=auto;html=1;" edge="1" parent="1" source="-ueJ-rn1FIGGCWriRNwZ-32">
          <mxGeometry relative="1" as="geometry">
            <mxPoint x="240" y="480" as="targetPoint" />
          </mxGeometry>
        </mxCell>
        <mxCell id="-ueJ-rn1FIGGCWriRNwZ-48" value="u16 (25600)" style="edgeLabel;html=1;align=center;verticalAlign=middle;resizable=0;points=[];" vertex="1" connectable="0" parent="-ueJ-rn1FIGGCWriRNwZ-47">
          <mxGeometry x="-0.2594" y="3" relative="1" as="geometry">
            <mxPoint as="offset" />
          </mxGeometry>
        </mxCell>
        <mxCell id="-ueJ-rn1FIGGCWriRNwZ-57" value="" style="edgeStyle=orthogonalEdgeStyle;rounded=0;orthogonalLoop=1;jettySize=auto;html=1;" edge="1" parent="1" source="-ueJ-rn1FIGGCWriRNwZ-51" target="-ueJ-rn1FIGGCWriRNwZ-54">
          <mxGeometry relative="1" as="geometry" />
        </mxCell>
        <mxCell id="-ueJ-rn1FIGGCWriRNwZ-61" value="u16 (320,80)" style="edgeLabel;html=1;align=center;verticalAlign=middle;resizable=0;points=[];" vertex="1" connectable="0" parent="-ueJ-rn1FIGGCWriRNwZ-57">
          <mxGeometry x="-0.25" y="1" relative="1" as="geometry">
            <mxPoint as="offset" />
          </mxGeometry>
        </mxCell>
        <mxCell id="-ueJ-rn1FIGGCWriRNwZ-51" value="De-linearize" style="rounded=0;whiteSpace=wrap;html=1;fillColor=#d5e8d4;strokeColor=#82b366;" vertex="1" parent="1">
          <mxGeometry x="360" y="600" width="80" height="40" as="geometry" />
        </mxCell>
        <mxCell id="-ueJ-rn1FIGGCWriRNwZ-58" value="" style="edgeStyle=orthogonalEdgeStyle;rounded=0;orthogonalLoop=1;jettySize=auto;html=1;" edge="1" parent="1" source="-ueJ-rn1FIGGCWriRNwZ-54" target="-ueJ-rn1FIGGCWriRNwZ-55">
          <mxGeometry relative="1" as="geometry" />
        </mxCell>
        <mxCell id="-ueJ-rn1FIGGCWriRNwZ-62" value="u16 (80,320)" style="edgeLabel;html=1;align=center;verticalAlign=middle;resizable=0;points=[];" vertex="1" connectable="0" parent="-ueJ-rn1FIGGCWriRNwZ-58">
          <mxGeometry x="0.15" y="-2" relative="1" as="geometry">
            <mxPoint as="offset" />
          </mxGeometry>
        </mxCell>
        <mxCell id="-ueJ-rn1FIGGCWriRNwZ-54" value="Transpose" style="rounded=0;whiteSpace=wrap;html=1;fillColor=#d5e8d4;strokeColor=#82b366;" vertex="1" parent="1">
          <mxGeometry x="360" y="680" width="80" height="40" as="geometry" />
        </mxCell>
        <mxCell id="-ueJ-rn1FIGGCWriRNwZ-59" value="" style="edgeStyle=orthogonalEdgeStyle;rounded=0;orthogonalLoop=1;jettySize=auto;html=1;" edge="1" parent="1" source="-ueJ-rn1FIGGCWriRNwZ-55" target="-ueJ-rn1FIGGCWriRNwZ-56">
          <mxGeometry relative="1" as="geometry" />
        </mxCell>
        <mxCell id="-ueJ-rn1FIGGCWriRNwZ-63" value="u8 (80,320)" style="edgeLabel;html=1;align=center;verticalAlign=middle;resizable=0;points=[];" vertex="1" connectable="0" parent="-ueJ-rn1FIGGCWriRNwZ-59">
          <mxGeometry x="-0.25" y="4" relative="1" as="geometry">
            <mxPoint as="offset" />
          </mxGeometry>
        </mxCell>
        <mxCell id="-ueJ-rn1FIGGCWriRNwZ-55" value="Scale" style="rounded=0;whiteSpace=wrap;html=1;fillColor=#d5e8d4;strokeColor=#82b366;" vertex="1" parent="1">
          <mxGeometry x="360" y="760" width="80" height="40" as="geometry" />
        </mxCell>
        <mxCell id="-ueJ-rn1FIGGCWriRNwZ-56" value="Out" style="rounded=0;whiteSpace=wrap;html=1;fillColor=#d5e8d4;strokeColor=#82b366;" vertex="1" parent="1">
          <mxGeometry x="360" y="840" width="80" height="40" as="geometry" />
        </mxCell>
        <mxCell id="-ueJ-rn1FIGGCWriRNwZ-64" value="" style="rounded=0;whiteSpace=wrap;html=1;fillColor=#d5e8d4;strokeColor=#82b366;" vertex="1" parent="1">
          <mxGeometry x="680" y="160" width="20" height="20" as="geometry" />
        </mxCell>
        <mxCell id="-ueJ-rn1FIGGCWriRNwZ-65" value="" style="rounded=0;whiteSpace=wrap;html=1;fillColor=#ffe6cc;strokeColor=#d79b00;" vertex="1" parent="1">
          <mxGeometry x="680" y="201" width="20" height="20" as="geometry" />
        </mxCell>
        <mxCell id="-ueJ-rn1FIGGCWriRNwZ-67" value="SW" style="text;html=1;align=center;verticalAlign=middle;resizable=0;points=[];autosize=1;strokeColor=none;fillColor=none;" vertex="1" parent="1">
          <mxGeometry x="699" y="155" width="40" height="30" as="geometry" />
        </mxCell>
        <mxCell id="-ueJ-rn1FIGGCWriRNwZ-68" value="MBD" style="text;html=1;align=center;verticalAlign=middle;resizable=0;points=[];autosize=1;strokeColor=none;fillColor=none;" vertex="1" parent="1">
          <mxGeometry x="695" y="196" width="50" height="30" as="geometry" />
        </mxCell>
      </root>
    </mxGraphModel>
  </diagram>
</mxfile>
